<svg xmlns="http://www.w3.org/2000/svg" viewBox="0 0 1158.02 826.22"><defs><style>.cls-1{fill:none;}.cls-1,.cls-2{stroke:#ffffff;stroke-miterlimit:10;stroke-width:15px;}.cls-2{fill:#ffffff;}</style></defs><g id="Layer_3" data-name="Layer 3"><polygon class="cls-1" points="628.5 215.72 628.5 566.72 268.5 566.72 628.5 215.72"/><path class="cls-1" d="M998,413.22a234.65,234.65,0,0,1-47.18,71.06c-58.48,60.16-133.38,70.91-160.32,73.44v-378c17.69-4.92,74.64-18.32,135.5,9.5,16.55,7.57,58.19,26.6,80.5,71.5C1036.94,322,1009.29,386.76,998,413.22Z"/><polygon class="cls-1" points="628.5 215.72 628.5 566.72 268.5 566.72 628.5 215.72"/><path class="cls-1" d="M998,413.22a234.65,234.65,0,0,1-47.18,71.06c-58.48,60.16-133.38,70.91-160.32,73.44v-378c17.69-4.92,74.64-18.32,135.5,9.5,16.55,7.57,58.19,26.6,80.5,71.5C1036.94,322,1009.29,386.76,998,413.22Z"/></g><g id="Layer_2" data-name="Layer 2"><path class="cls-2" d="M880.5,44.72c-260.5-71.5-864-18-864-18l.5,117.5,26.5,44.5h333l-369,378v126l36,54h585v27l36,45h117v-81c18.5.5,215.5-.5,279-108s89.5-189.5,90-252S1141,116.22,880.5,44.72Zm-252,522h-360l360-351ZM998,413.22a234.65,234.65,0,0,1-47.18,71.06c-58.48,60.16-133.38,70.91-160.32,73.44v-378c17.69-4.92,74.64-18.32,135.5,9.5,16.55,7.57,58.19,26.6,80.5,71.5C1036.94,322,1009.29,386.76,998,413.22Z"/><polygon class="cls-1" points="628.5 215.72 628.5 566.72 268.5 566.72 628.5 215.72"/><path class="cls-1" d="M998,413.22a234.65,234.65,0,0,1-47.18,71.06c-58.48,60.16-133.38,70.91-160.32,73.44v-378c17.69-4.92,74.64-18.32,135.5,9.5,16.55,7.57,58.19,26.6,80.5,71.5C1036.94,322,1009.29,386.76,998,413.22Z"/><polygon class="cls-1" points="628.5 215.72 628.5 566.72 268.5 566.72 628.5 215.72"/><path class="cls-1" d="M998,413.22a234.65,234.65,0,0,1-47.18,71.06c-58.48,60.16-133.38,70.91-160.32,73.44v-378c17.69-4.92,74.64-18.32,135.5,9.5,16.55,7.57,58.19,26.6,80.5,71.5C1036.94,322,1009.29,386.76,998,413.22Z"/></g></svg>