<svg id="Layer_2" data-name="Layer 2" xmlns="http://www.w3.org/2000/svg" viewBox="0 0 2121.62 2119.24"><defs><style>.cls-1{fill:#fff;}.cls-2{fill:#ffffff;}</style></defs><circle class="cls-1" cx="1058.8" cy="1060.18" r="618.43"/><path class="cls-2" d="M1061.13,0c4.57.27,11,1.05,15.63,1.49,3.81.38,8,.94,11.76,1.51s8.37,1.33,11.87,2.26c4.85,1.09,8.5,3.14,12.62,5.3,5.43,3,12,7.13,12.17,13.67.19,3.46-.63,8.66-.94,12.17l-1.3,12.17c-8.36,81.18-24.67,163.17-40.14,243.45-3.85,20.17-7.62,40.66-11.19,60.87-2.18,12.54-4.67,24.45-9.82,36.52l-15,0c-5.19-12.06-7.72-23.95-9.94-36.49-19-104.85-43.27-210.23-53.7-316.31-1.69-14.35-2.88-18,11.14-25.88,4.11-2.17,7.75-4.23,12.6-5.34a162.58,162.58,0,0,1,17.28-3.08c5.29-.72,12.06-1.38,17.39-1.93l4.57-.38,15,0Z"/><path class="cls-2" d="M2121.62,1059.78c-.27,4.56-1,11-1.49,15.62-.38,3.81-.94,8-1.5,11.77s-1.33,8.37-2.26,11.87c-1.1,4.84-3.14,8.5-5.31,12.62-2.95,5.42-7.12,12-13.67,12.17-3.46.18-8.65-.64-12.17-.95l-12.17-1.29c-81.18-8.37-163.16-24.68-243.45-40.14-20.17-3.86-40.65-7.62-60.87-11.2-12.54-2.17-24.44-4.66-36.52-9.81l0-15c12.06-5.2,24-7.73,36.5-9.94,104.84-19,210.22-43.27,316.3-53.71,14.36-1.68,18.05-2.87,25.88,11.14,2.18,4.11,4.24,7.76,5.35,12.6a163.46,163.46,0,0,1,3.07,17.28c.73,5.29,1.39,12.07,1.93,17.4l.39,4.57,0,15Z"/><path class="cls-2" d="M1057.77,2119.24c-4.56-.27-11-1-15.63-1.5-3.81-.37-8-.93-11.76-1.5s-8.37-1.33-11.87-2.26c-4.85-1.09-8.5-3.14-12.62-5.3-5.43-3-12-7.13-12.17-13.67-.19-3.46.63-8.66.94-12.17l1.3-12.17c8.36-81.18,24.67-163.17,40.14-243.46,3.85-20.16,7.62-40.65,11.19-60.86,2.18-12.54,4.67-24.45,9.82-36.53l15,0c5.19,12.06,7.72,24,9.94,36.49,19,104.84,43.27,210.23,53.7,316.31,1.69,14.35,2.88,18-11.13,25.88-4.12,2.17-7.76,4.23-12.61,5.34a160.07,160.07,0,0,1-17.28,3.07c-5.29.73-12.06,1.39-17.39,1.93l-4.57.39-15,0Z"/><path class="cls-2" d="M0,1059.92c.27-4.57,1.05-11,1.49-15.63.38-3.81.94-8,1.51-11.76s1.33-8.37,2.26-11.87c1.09-4.85,3.14-8.5,5.3-12.62,3-5.43,7.13-12,13.67-12.17,3.46-.19,8.66.63,12.17.94l12.17,1.3c81.18,8.36,163.17,24.67,243.45,40.14,20.17,3.85,40.66,7.62,60.87,11.19,12.54,2.17,24.45,4.66,36.52,9.82l0,15c-12.06,5.19-23.95,7.72-36.49,9.94-104.85,19-210.23,43.26-316.31,53.7-14.35,1.69-18,2.87-25.88-11.14-2.17-4.11-4.23-7.75-5.34-12.6a162.58,162.58,0,0,1-3.08-17.28c-.72-5.29-1.38-12.07-1.93-17.39L0,1074.92l0-15Z"/><path class="cls-2" d="M1971.93,1598.77c-9,11.68-14.43,17-18.24,19.51a22.49,22.49,0,0,1-4.84,2.32c-3.74,1.51-8.45,2.9-12,2.63-6.19-.4-11.31-5.08-16.38-8.13-85.34-54.89-167.71-116.32-249.34-176.68-13.24-9.83-27.85-19.36-36.73-33.78l7.48-13a66.93,66.93,0,0,1,13,1.74,119.94,119.94,0,0,1,23.38,8.16c47.48,20.6,98.9,42.58,146,63.45,37,16.43,74.29,33.9,110.61,51.76,10.58,5.19,22.16,11,32.74,16.3,5.13,2.83,11.83,4.92,15.26,10.07,2,3,3.2,7.74,3.78,11.73a23.63,23.63,0,0,1,.44,5.35c-.3,4.58-2.15,11.88-7.69,25.58l-7.48,13Z"/><path class="cls-2" d="M519.39,1975.19c-11.68-9-16.95-14.42-19.51-18.24a22.49,22.49,0,0,1-2.32-4.84c-1.51-3.73-2.9-8.44-2.63-12,.4-6.19,5.08-11.31,8.13-16.38C558,1838.35,619.38,1756,679.74,1674.35c9.83-13.24,19.36-27.85,33.78-36.73l13,7.48a66.82,66.82,0,0,1-1.74,13,119.28,119.28,0,0,1-8.16,23.38c-20.6,47.48-42.58,98.9-63.45,146-16.43,37-33.9,74.3-51.76,110.61-5.19,10.59-11,22.16-16.3,32.74-2.83,5.13-4.92,11.83-10.07,15.26-3,2-7.74,3.2-11.73,3.79-1.89.18-3.23.63-5.35.43-4.58-.29-11.88-2.15-25.58-7.69l-13-7.48Z"/><path class="cls-2" d="M145.88,518.6c9.05-11.67,14.43-17,18.24-19.51a22.44,22.44,0,0,1,4.84-2.31c3.74-1.51,8.45-2.91,12-2.63,6.19.39,11.31,5.08,16.38,8.12C282.72,557.16,365.1,618.59,446.73,679c13.24,9.83,27.84,19.35,36.72,33.78l-7.48,13a66,66,0,0,1-13-1.74,119.77,119.77,0,0,1-23.39-8.15c-47.47-20.6-98.9-42.59-146-63.45-37-16.44-74.3-33.91-110.62-51.76-10.58-5.2-22.16-11-32.74-16.31-5.13-2.83-11.82-4.91-15.26-10.07-2-3-3.2-7.73-3.78-11.73-.18-1.88-.64-3.23-.44-5.35.3-4.58,2.15-11.88,7.69-25.57l7.48-13Z"/><path class="cls-2" d="M1598,146.6c11.67,9.05,17,14.42,19.51,18.24a22.92,22.92,0,0,1,2.31,4.84c1.51,3.73,2.9,8.44,2.63,12-.39,6.19-5.08,11.31-8.13,16.38-54.89,85.34-116.32,167.71-176.68,249.34-9.83,13.24-19.35,27.85-33.78,36.73l-13-7.48a66.07,66.07,0,0,1,1.74-13,119.91,119.91,0,0,1,8.15-23.38c20.6-47.48,42.59-98.91,63.45-146,16.44-37,33.9-74.3,51.76-110.61,5.19-10.59,11-22.16,16.3-32.74,2.84-5.13,4.92-11.83,10.08-15.27,3-2,7.73-3.19,11.73-3.78a24.14,24.14,0,0,1,5.34-.43c4.59.29,11.88,2.15,25.58,7.69l13,7.48Z"/><path class="cls-2" d="M2006,602.45a66.19,66.19,0,0,1-19,14.29c-7.15,3.35-14.48,6.41-21.67,9.71-43.08,19.3-85.42,41.37-127.93,61.79a944.06,944.06,0,0,1-145,56.16,27.78,27.78,0,0,1-13.42.51c-12.54-2.24-27.61-11.78-38-20.57-1-.88-2.49-2.06-3.51-3l-7.67-12.89c-3.5-14.65-5.41-34-.95-47.72a27.71,27.71,0,0,1,6.85-11.55l8.64-8.54a939.45,939.45,0,0,1,109.86-92.15C1799,516.33,1845,485,1888.42,451.06a66.45,66.45,0,0,1,21.59-9.85l96,161.24Z"/><path class="cls-2" d="M1517.48,2009a66.48,66.48,0,0,1-14.28-19c-3.35-7.16-6.41-14.49-9.72-21.67-19.29-43.09-41.36-85.43-61.79-127.94a943.9,943.9,0,0,1-56.15-145,27.79,27.79,0,0,1-.51-13.42c2.23-12.55,11.77-27.62,20.56-38,.88-1,2.06-2.49,3-3.52l12.89-7.67c14.66-3.5,34-5.4,47.72-1a27.71,27.71,0,0,1,11.55,6.85l8.54,8.65a937.89,937.89,0,0,1,92.16,109.86c32.13,44.78,63.46,90.72,97.41,134.18a66.45,66.45,0,0,1,9.85,21.59l-161.25,96Z"/><path class="cls-2" d="M107.58,1516.62a66.39,66.39,0,0,1,19-14.28c7.15-3.36,14.48-6.42,21.66-9.72,43.09-19.29,85.43-41.36,127.94-61.79a942.6,942.6,0,0,1,145-56.15,27.65,27.65,0,0,1,13.42-.52c12.54,2.24,27.61,11.78,38,20.57,1,.88,2.5,2.06,3.52,3l7.67,12.89c3.5,14.65,5.41,34,.95,47.72a27.71,27.71,0,0,1-6.85,11.55l-8.64,8.54a940.52,940.52,0,0,1-109.86,92.16c-44.79,32.13-90.73,63.46-134.19,97.4a66.24,66.24,0,0,1-21.59,9.85l-96-161.24Z"/><path class="cls-2" d="M598,116a66.34,66.34,0,0,1,14.28,19c3.35,7.15,6.41,14.48,9.71,21.67,19.3,43.08,41.37,85.42,61.79,127.93a944.46,944.46,0,0,1,56.16,145,27.78,27.78,0,0,1,.51,13.42c-2.24,12.54-11.78,27.61-20.57,38-.88,1-2.06,2.49-3,3.51L704,492.17c-14.65,3.5-34,5.41-47.72.95a27.71,27.71,0,0,1-11.55-6.85l-8.54-8.64A939.45,939.45,0,0,1,544,367.77C511.9,323,480.57,277.05,446.62,233.58A66.45,66.45,0,0,1,436.77,212L598,116Z"/></svg>