<svg xmlns="http://www.w3.org/2000/svg" viewBox="0 0 1085.63 650.8"><defs><style>.cls-1{fill:#34499f;}.cls-1,.cls-10,.cls-3,.cls-4,.cls-5,.cls-6,.cls-8,.cls-9{stroke:#fff;}.cls-1,.cls-10,.cls-2,.cls-3,.cls-4,.cls-5,.cls-6,.cls-8,.cls-9{stroke-miterlimit:10;}.cls-1,.cls-2,.cls-3,.cls-4{stroke-width:45px;}.cls-2,.cls-3,.cls-5,.cls-7,.cls-8{fill:#252525;}.cls-2{stroke:#252525;}.cls-10,.cls-4,.cls-9{fill:none;}.cls-10,.cls-5,.cls-6{stroke-width:20px;}.cls-6{fill:#fff;}.cls-8{stroke-width:30px;}.cls-9{stroke-width:10px;}</style></defs><g id="Layer_1" data-name="Layer 1"><path class="cls-1" d="M972.18,415.25v44.22a12,12,0,0,1-12,12H335.83a12,12,0,0,1-12-12v-39a1498.42,1498.42,0,0,0,325.53,32.94A1500.07,1500.07,0,0,0,972.18,415.25Z"/><path class="cls-2" d="M972.18,390.88v24.37a1500.07,1500.07,0,0,1-322.82,38.16,1498.42,1498.42,0,0,1-325.53-32.94V396.15A1350.61,1350.61,0,0,0,648.12,433,1350.43,1350.43,0,0,0,972.18,390.88Z"/><path class="cls-3" d="M1044.91,40.18V431.62c-22.57,7-46.85,13.86-72.73,20.37V425.34a1241.83,1241.83,0,0,1-324.06,46.08A1240.42,1240.42,0,0,1,323.83,431.1v26.6c-24.95-5.81-48.42-12-70.3-18.31V40.18c0-9.72,6.59-17.68,14.65-17.68h762.09C1038.32,22.5,1044.91,30.46,1044.91,40.18Z"/><path class="cls-4" d="M972.18,390.88v24.37a1500.07,1500.07,0,0,1-322.82,38.16,1498.42,1498.42,0,0,1-325.53-32.94V396.15A1350.61,1350.61,0,0,0,648.12,433,1350.43,1350.43,0,0,0,972.18,390.88Z"/><rect class="cls-4" x="456.4" y="590.69" width="384.34" height="35.01" rx="12"/><rect class="cls-4" x="542.8" y="534.08" width="210.79" height="41.71" rx="12"/></g><g id="Layer_3" data-name="Layer 3"><rect class="cls-5" x="10" y="331.14" width="412.49" height="268.66" rx="12"/><rect class="cls-6" x="10" y="603.4" width="412.49" height="32.4" rx="12"/><circle class="cls-5" cx="375.68" cy="565.15" r="6.33"/><rect class="cls-7" x="163.32" y="599.69" width="94.32" height="27.28" rx="12"/></g><g id="Layer_2" data-name="Layer 2"><rect class="cls-8" x="918.7" y="377.9" width="151.94" height="257.9" rx="12"/><line class="cls-9" x1="918.7" y1="435.47" x2="1070.63" y2="435.55"/><line class="cls-10" x1="918.7" y1="581.26" x2="1070.63" y2="581.26"/><line class="cls-9" x1="947.27" y1="410.55" x2="1044.91" y2="410.55"/><circle class="cls-5" cx="994.66" cy="605.55" r="2.65"/></g></svg>