<svg xmlns="http://www.w3.org/2000/svg" viewBox="0 0 96 96"><defs><style>.cls-1{fill:#0399ff;}.cls-2{fill:#fff;}.cls-3{fill:none;stroke:#0399ff;stroke-miterlimit:10;stroke-width:3px;}</style></defs><g id="linkedin"><path class="cls-1" d="M48,0A48,48,0,1,0,96,48,48,48,0,0,0,48,0ZM72.5,64.27a8.25,8.25,0,0,1-8.23,8.23H31.73a8.25,8.25,0,0,1-8.23-8.23V31.73a8.25,8.25,0,0,1,8.23-8.23H64.27a8.25,8.25,0,0,1,8.23,8.23Z"/><rect class="cls-1" x="23.5" y="23.5" width="49" height="49" rx="8.23"/><rect class="cls-2" x="24.06" y="30.38" width="48.64" height="36.7" rx="12"/></g><g id="Layer_2" data-name="Layer 2"><polyline class="cls-3" points="83.96 30.89 48.55 48 47.96 48 12.55 30.89"/></g></svg>