<svg xmlns="http://www.w3.org/2000/svg" viewBox="0 0 1143.29 424.34"><defs><style>.cls-1{fill:#b8b8c9;}.cls-2{fill:#79959e;}</style></defs><g id="Layer_2" data-name="Layer 2"><path class="cls-1" d="M165.34,202.37s-6-1-20.12,2.51-26.4,21.38-26.4,21.38-39,14.14-63.5,39.92S13.52,296.67,23,319.61s17,21.69,16.34,27.66S0,387.82,0,387.82s10.06,6.92,12.26,12.26,4.4,9.43,4.4,11.63,23.26,11.63,31.75,6.92S39,407,39,407l-7.23-8.8-2.52-5.66s8.8-11,21.06-16.35c14.76-6.43,21.27-16.75,19.81-22.31-.47-1.79-1.74-2.58-3.15-6.61a29.56,29.56,0,0,1-1.59-8.14,41.8,41.8,0,0,0,9.6,8.18c6.87,4.24,11.45,3.64,13.68,7.19,1.48,2.35,2,6.56-2.25,14.8q-1,5.74-1.93,11.49c.57,5.92,1,12.21,1.09,18.84.07,3.24.06,6.4,0,9.46l-2.41,7.55c15.61,2.74,25.63,4.54,32.42,5.77,11.17,2,18.63,3.42,24.63-1a17.86,17.86,0,0,0,6-8.18l-13.84-3.45-9.74-5.35-10.37-6.28-2.52-.95L116,377.14s10.37-14.15,3.77-22.64-3.14-12.88-11.94-19.49-17.29-14.45-17.29-14.45q2.4-3.31,5.2-6.77c2.69-3.31,5.37-6.34,8-9.1,1-.94,7.21-6.64,14.18-5.07,4.26,1,6.89,4.2,9.77,7.74a48,48,0,0,1,6.89,11.94c13.48,22.59,54.61,41.13,52.8,62.87-.48,5.75-4.05,15.58-5,15.4-.24-.05-.32-.69-.35-1.26l1.93,6.6,4.58-1,3.59-2.76-1.57,6.29-4.72,4.71-.94,5.34s11,6.29,29.23-1.25-9.74-33.32-9.74-33.32l-5.66-11.63L188.92,340l20.74,9.43c10.12,13.57,14.15,17.92,14.15,17.92a109,109,0,0,0,8.8,8.49s12.57-.94,10.06-10.37c-7-26.18-20.44-34.58-20.44-34.58A39.52,39.52,0,0,0,209,326.09l-10.61-3-7.23-7.23-4.72-4.09-9.12-8.48-8.8-6.6c7.24-28.78,5.81-38.22,2.52-40.87-.64-.51-3.84-2.77-3.8-5.77,0-1.72,1.12-3.61,2.23-3.66s2.53,2,3.15,5.19a16,16,0,0,0,8.16,3.3c7,.69,12.89-3.32,12.89-4.72,0-3.14,5-9.43,5-9.43s6.91-.31.63-7.23a135.32,135.32,0,0,0-11.95-11.63,9.67,9.67,0,0,0-.16-7.18,10.3,10.3,0,0,0-4.55-4.45A115.51,115.51,0,0,0,165.34,202.37Z"/><path class="cls-1" d="M448.5,76.71c-25.14-20.27-51.21-16.25-71.33,7.83-58.83,22.79-66.54,48.32-92.54,101.42-3.68,4.34-11.19,13.23-15,26.85-11.74,32.24,19.77,67.71,27.51,100.48,0,0-19.07,14-19.07,18.23-4.92,36,7.79,36.67-15.34,71.15,0,0,0,9.76,25.57,8.83s28.83,2.79,28.83,2.79L339,410.57l-1.39-7.9-14.42-5.12c-4.07-2.36-11.8-8.47-15.35-11.63l-2.32-4.18L301.36,378,299,372.9l35.34-64.64s6.05-7,10.23-2.32-9.76,30.69-8.37,36.74,2.33,15.81,7.91,24.64,1.86,47,1.86,47,55.34,11.16,79.52,0-33.95-17.2-33.95-17.2l-11.16-10.7-5.12-17.67L373,346.4l3.72-24.65c14.62-7.06,17.54-29.13,6.72-39.82-2.22-18.46-2.49-38.27-3-56.91-1.72-12.27-6.23-29.37-8.84-41.39L380,171.54c10.29-11.15,14.78-18.82,15-34.21,15.43-36.59,58.6,17.93,57.52-28.57l-3.72-13Z"/><path class="cls-1" d="M593.23,52.16s-24.49-17-48.38-2.43S526.63,85,526.63,85,509.83,95.68,505,104s-47.77,44.13-47.77,49,9.11,43.92,14.37,48.17-2.22,26.92,7.7,43.12,13.15,52.22,23.48,57.89S474.21,321,470,334.74s-1.21,18.22-9.71,26.11a162.85,162.85,0,0,0-13.36,13.77s-16.4,5.87-7.69,16.39,22.67,10.32,30.16,20.24S491,415.5,491,415.5l-3-5.87-7.69-8.9-5.06-5.67L471,390v-9.31l12.55-16.4,52.42-45.14s6.89-20.24,4.25-23.07,17.21,11.13,17.21,11.13-14.17,33-8.91,45.54,7.29,38.46,1.42,52.43S555,420.56,555,420.56l63.16.81,7.08-6.47-8.7-3.24-7.9-2L599.3,405l-5.87-3.44-6.07-4.86L583.11,392l-3.24-3.84-.81-7.29s10.93-67,13-77.32S584.52,286,584.52,286s-11.33-27.73-15.78-31-8.91-11.74-8.91-11.74l-7.09-15.19-6.07-5.87-3-7.28v-6.68s51.61,9.31,53.43,14.17-13.15,39.06-13.15,39.06l31.17-28.86a30.36,30.36,0,0,0,7.29-2.31c3.23-1.62,6.07-18.62,1.62-23.68s-12.55-9.31-12.55-9.31l-12.15-.41L590,195.27l-6.68-1.62-11.13-3.84-9.11-3.65-4.46-3.64-4.25-8.3-2.63-7.29s10.73-20,10.93-23.07-2.22-15.18-2.22-15.18L555,123V113.5l13.56-7.29,20.65-1.62c1.31-.58,9.4-4.28,11.33-12.35,1.56-6.5-1.65-12.57-2.52-14.21-2.76-5.22-5.28-5.11-5.66-8.67-.49-4.63,3.53-7,2.82-12.32A11.51,11.51,0,0,0,593.23,52.16Z"/><path class="cls-1" d="M788.27,12.39S766-1.08,746.07,11.09s-17.86,41.42-17.86,41.42-28.48,19.94-31.84,25.38L663,131.73a92.39,92.39,0,0,0,5.26,17.52c3.84,9.35,6.51,11.45,8.72,16.4,7.76,17.36-12.36,28-4.14,49.45C680.06,234,684.72,242,684.72,242l3.88,48.67S666.08,313,663,317.1s-6.73,19.42-6.73,25.11-20.19,35.73-20.19,35.73l-9.76,10.35s.7,9.58,7.43,10.1,20.45,4.14,24.07,7,38.58,6.73,38.58,6.73L693,407.19l-9.84-7-12.94-6.73-7.51-8-4.66-6,32.62-45.56,32.1-35.73.52-21.49,13.46,11.91s1.82,9.32.78,17.09-7,24.33-7,24.33.26,26.41,4.14,30.81S737,393.21,737,393.21s-6.21,13.72-3.88,18.9,32.62,4.66,32.62,4.66l38.32-2.59-1.56-5.43-9.32-4.4-17.08-5.44-6.48-4.14-7.5-4.66.51-27.7s12.17-62.91,12.43-69.13-2.07-19.93-9.84-27.18-13.72-25.37-13.72-25.37l-3.36-11.91-2.33-11.65-3.37-9.32L737,199.3l-4.14-7.24-5.69-7.77.77-4.66S770.67,194.9,774,199.05s16.06,12.34,16.06,12.34,20.19-3.8,14-15.71-15.8-8.8-15.8-8.8l-13.2-5.18L758,170.57l-11.91-8.29L744,154.79l-2.33-8.56-.77-10.87,9.32-8.29a17.17,17.17,0,0,0,5.35-8.83c1.53-6.83-2.1-12.72-3.24-14.58-1.5-2.44-3.82-3.46-5.56-7.19a19.35,19.35,0,0,1-1.36-4.07l1.44-5.19L751,80.47l15-9.06L781,73a5.15,5.15,0,0,0,5-4.73l2-7.44,8-8.28a16.89,16.89,0,0,1-3.84-12.38,16.3,16.3,0,0,1,3.84-8.7,14,14,0,0,0,1.05-6C796.71,17.49,789.15,12.9,788.27,12.39Z"/><path class="cls-1" d="M977.22,167.57c-.69-.85-13-15.36-31.63-12.78-14.94,2.07-22.8,13.56-24,15.38a43.94,43.94,0,0,1-6.91,10.49c-21.49,24.14-58.54,4.41-75.08,27.63-18,25.27-16.36,38.72-16.36,38.72l-.06,15.14A36.92,36.92,0,0,0,820,246.29c-1.88-4.13-3.68-7.29-6.91-8.73-4.91-2.18-11.82,2.91-11.82,2.91l-3.82,21.82-2.18,17.81-1.09,21.09s2.18,20.91,16.18,21.27S846,323.73,846,323.73l-.18,22v26.36l.18,3.46H811.24l-2.74,3.51-1.26,5-18,2-3.45,4.54s1.27,5.28,4.18,5.46-2.5,6.43-2.5,6.43l15,6.23,7.64-3.39s33.63-8.54,34.36-6,4,11.45,4,11.45a15.66,15.66,0,0,0,10.66,5.2,15.5,15.5,0,0,0,9.88-3,17.85,17.85,0,0,0,3.46-2.92,18.12,18.12,0,0,0,2.36-3.27,7.54,7.54,0,0,0-5.09-5.45l2.18-2,13.45-.18s3.27,17.63,22.91,16S929,411.36,929,411.36l-13.09-10L929,401l2.19-4.73-1.46-3.82-3.64-2.91-.54-6.18-.55-3.81-4.54-3.28-5.09-2.36h-7.64s28.91-48.54,42.73-54.36,24-28.72,24-28.72.37-10.73-7.81-14-7.46-9.27-7.46-9.27l14-7.46,9.09-.18s6.73,1.46,9.09,6.91,5.09,1.27,5.09,1.27l-1.82-8s17.27,2.73,20.73,4.37,5.82-1.64,5.82-1.64,7.63,2.91,6.9-.36-8.54-9.64-8.54-9.64l-5.27-2.54-4-3.64.91-2.36.72-6.91a12.23,12.23,0,0,0-2.07-2.27,14.73,14.73,0,0,0-3-1.91c-2.36-1.08-8.15-.86-14.72,2.18l-3.46-2.55-11.45.73s-18.18,6.91-25.63,12.36-10.18,6-10.18,6h-7.09l-3.28.18s-4-6.9-2.18-12.9-2.18-13.46-2.18-13.46l.18-6.72.91-7.63,9.82-2.19c9.68,4,15.45,3,18.94,1.36,0,0,1.35-.65,10.15-7.36a7.72,7.72,0,0,0,6.45-3.6c-2.85-6.84-2.13-10.61-.87-12.8,1-1.75,2.74-3.18,4.34-6.73a23.09,23.09,0,0,0,1.53-4.68C978.37,174.63,978.64,173.5,977.22,167.57Z"/><polygon class="cls-1" points="1045.96 177.2 1075.32 183.98 1075.32 191.13 1123.88 209.57 1122 238.93 1087.37 243.83 1086.99 251.73 1133.29 270.18 1133.29 306.69 1129.15 320.24 1117.86 320.24 1117.48 410.96 1011.71 408.32 1013.97 321.75 992.14 319.49 992.14 308.95 978.59 306.69 978.59 287.12 1037.68 287.12 1045.96 285.03 1050.48 265.66 1055.94 247.22 1033.16 246.84 1045.96 177.2"/></g><g id="Layer_3" data-name="Layer 3"><path class="cls-2" d="M175.34,196.37s-6-1-20.12,2.51-26.4,21.38-26.4,21.38-39,14.14-63.5,39.92S23.52,290.67,33,313.61s17,21.69,16.34,27.66S10,381.82,10,381.82s10.06,6.92,12.26,12.26,4.4,9.43,4.4,11.63,23.26,11.63,31.75,6.92S49,401,49,401l-7.23-8.8-2.52-5.66s8.8-11,21.06-16.35c14.76-6.43,21.27-16.75,19.81-22.31-.47-1.79-1.74-2.58-3.15-6.61a29.56,29.56,0,0,1-1.59-8.14,41.8,41.8,0,0,0,9.6,8.18c6.87,4.24,11.45,3.64,13.68,7.19,1.48,2.35,2,6.56-2.25,14.8q-1,5.74-1.93,11.49c.57,5.92,1,12.21,1.09,18.84.07,3.24.06,6.4,0,9.46l-2.41,7.55c15.61,2.74,25.63,4.54,32.42,5.77,11.17,2,18.63,3.42,24.63-1a17.86,17.86,0,0,0,6-8.18l-13.84-3.45-9.74-5.35-10.37-6.28-2.52-.95L126,371.14s10.37-14.15,3.77-22.64-3.14-12.88-11.94-19.49-17.29-14.45-17.29-14.45q2.4-3.31,5.2-6.77c2.69-3.31,5.37-6.34,8-9.1,1-.94,7.21-6.64,14.18-5.07,4.26,1,6.89,4.2,9.77,7.74a48,48,0,0,1,6.89,11.94c13.48,22.59,54.61,41.13,52.8,62.87-.48,5.75-4.05,15.58-5,15.4-.24-.05-.32-.69-.35-1.26l1.93,6.6,4.58-1,3.59-2.76-1.57,6.29-4.72,4.71-.94,5.34s11,6.29,29.23-1.25-9.74-33.32-9.74-33.32l-5.66-11.63L198.92,334l20.74,9.43c10.12,13.57,14.15,17.92,14.15,17.92a109,109,0,0,0,8.8,8.49s12.57-.94,10.06-10.37c-7-26.18-20.44-34.58-20.44-34.58A39.52,39.52,0,0,0,219,320.09l-10.61-3-7.23-7.23-4.72-4.09-9.12-8.48-8.8-6.6c7.24-28.78,5.81-38.22,2.52-40.87-.64-.51-3.84-2.77-3.8-5.77,0-1.72,1.12-3.61,2.23-3.66s2.53,2,3.15,5.19a16,16,0,0,0,8.16,3.3c7,.69,12.89-3.32,12.89-4.72,0-3.14,5-9.43,5-9.43s6.91-.31.63-7.23a135.32,135.32,0,0,0-11.95-11.63,9.67,9.67,0,0,0-.16-7.18,10.3,10.3,0,0,0-4.55-4.45A115.51,115.51,0,0,0,175.34,196.37Z"/><path class="cls-2" d="M458.5,70.71c-25.14-20.27-51.21-16.25-71.33,7.83-58.83,22.79-66.54,48.32-92.54,101.42-3.68,4.34-11.19,13.23-15,26.85-11.74,32.24,19.77,67.71,27.51,100.48,0,0-19.07,14-19.07,18.23-4.92,36,7.79,36.67-15.34,71.15,0,0,0,9.76,25.57,8.83s28.83,2.79,28.83,2.79L349,404.57l-1.39-7.9-14.42-5.12c-4.07-2.36-11.8-8.47-15.35-11.63l-2.32-4.18L311.36,372,309,366.9l35.34-64.64s6.05-7,10.23-2.32-9.76,30.69-8.37,36.74,2.33,15.81,7.91,24.64,1.86,47,1.86,47,55.34,11.16,79.52,0-33.95-17.2-33.95-17.2l-11.16-10.7-5.12-17.67L383,340.4l3.72-24.65c14.62-7.06,17.54-29.13,6.72-39.82-2.22-18.46-2.49-38.27-3-56.91-1.72-12.27-6.23-29.37-8.84-41.39L390,165.54c10.29-11.15,14.78-18.82,15-34.21,15.43-36.59,58.6,17.93,57.52-28.57l-3.72-13Z"/><path class="cls-2" d="M603.23,46.16s-24.49-17-48.38-2.43S536.63,79,536.63,79,519.83,89.68,515,98s-47.77,44.13-47.77,49,9.11,43.92,14.37,48.17-2.22,26.92,7.7,43.12,13.15,52.22,23.48,57.89S484.21,315,480,328.74s-1.21,18.22-9.71,26.11a162.85,162.85,0,0,0-13.36,13.77s-16.4,5.87-7.69,16.39,22.67,10.32,30.16,20.24S501,409.5,501,409.5l-3-5.87-7.69-8.9-5.06-5.67L481,384v-9.31l12.55-16.4,52.42-45.14s6.89-20.24,4.25-23.07,17.21,11.13,17.21,11.13-14.17,33-8.91,45.54,7.29,38.46,1.42,52.43S565,414.56,565,414.56l63.16.81,7.08-6.47-8.7-3.24-7.9-2L609.3,399l-5.87-3.44-6.07-4.86L593.11,386l-3.24-3.84-.81-7.29s10.93-67,13-77.32S594.52,280,594.52,280s-11.33-27.73-15.78-31-8.91-11.74-8.91-11.74l-7.09-15.19-6.07-5.87-3-7.28v-6.68s51.61,9.31,53.43,14.17-13.15,39.06-13.15,39.06l31.17-28.86a30.36,30.36,0,0,0,7.29-2.31c3.23-1.62,6.07-18.62,1.62-23.68s-12.55-9.31-12.55-9.31l-12.15-.41L600,189.27l-6.68-1.62-11.13-3.84-9.11-3.65-4.46-3.64-4.25-8.3-2.63-7.29s10.73-20,10.93-23.07-2.22-15.18-2.22-15.18L565,117V107.5l13.56-7.29,20.65-1.62c1.31-.58,9.4-4.28,11.33-12.35,1.56-6.5-1.65-12.57-2.52-14.21-2.76-5.22-5.28-5.11-5.66-8.67-.49-4.63,3.53-7,2.82-12.32A11.51,11.51,0,0,0,603.23,46.16Z"/><path class="cls-2" d="M798.27,6.39S776-7.08,756.07,5.09s-17.86,41.42-17.86,41.42-28.48,19.94-31.84,25.38L673,125.73a92.39,92.39,0,0,0,5.26,17.52c3.84,9.35,6.51,11.45,8.72,16.4,7.76,17.36-12.36,28-4.14,49.45C690.06,228,694.72,236,694.72,236l3.88,48.67S676.08,307,673,311.1s-6.73,19.42-6.73,25.11-20.19,35.73-20.19,35.73l-9.76,10.35s.7,9.58,7.43,10.1,20.45,4.14,24.07,7,38.58,6.73,38.58,6.73L703,401.19l-9.84-7-12.94-6.73-7.51-8-4.66-6,32.62-45.56,32.1-35.73.52-21.49,13.46,11.91s1.82,9.32.78,17.09-7,24.33-7,24.33.26,26.41,4.14,30.81S747,387.21,747,387.21s-6.21,13.72-3.88,18.9,32.62,4.66,32.62,4.66l38.32-2.59-1.56-5.43-9.32-4.4-17.08-5.44-6.48-4.14-7.5-4.66.51-27.7s12.17-62.91,12.43-69.13-2.07-19.93-9.84-27.18-13.72-25.37-13.72-25.37l-3.36-11.91-2.33-11.65-3.37-9.32L747,193.3l-4.14-7.24-5.69-7.77.77-4.66S780.67,188.9,784,193.05s16.06,12.34,16.06,12.34,20.19-3.8,14-15.71-15.8-8.8-15.8-8.8l-13.2-5.18L768,164.57l-11.91-8.29L754,148.79l-2.33-8.56-.77-10.87,9.32-8.29a17.17,17.17,0,0,0,5.35-8.83c1.53-6.83-2.1-12.72-3.24-14.58-1.5-2.44-3.82-3.46-5.56-7.19a19.35,19.35,0,0,1-1.36-4.07l1.44-5.19L761,74.47l15-9.06L791,67a5.15,5.15,0,0,0,5-4.73l2-7.44,8-8.28a16.89,16.89,0,0,1-3.84-12.38,16.3,16.3,0,0,1,3.84-8.7,14,14,0,0,0,1.05-6C806.71,11.49,799.15,6.9,798.27,6.39Z"/><path class="cls-2" d="M987.22,161.57c-.69-.85-13-15.36-31.63-12.78-14.94,2.07-22.8,13.56-24,15.38a43.94,43.94,0,0,1-6.91,10.49c-21.49,24.14-58.54,4.41-75.08,27.63-18,25.27-16.36,38.72-16.36,38.72l-.06,15.14A36.92,36.92,0,0,0,830,240.29c-1.88-4.13-3.68-7.29-6.91-8.73-4.91-2.18-11.82,2.91-11.82,2.91l-3.82,21.82-2.18,17.81-1.09,21.09s2.18,20.91,16.18,21.27S856,317.73,856,317.73l-.18,22v26.36l.18,3.46H821.24l-2.74,3.51-1.26,5-18,2-3.45,4.54s1.27,5.28,4.18,5.46-2.5,6.43-2.5,6.43l15,6.23,7.64-3.39s33.63-8.54,34.36-6,4,11.45,4,11.45a15.66,15.66,0,0,0,10.66,5.2,15.5,15.5,0,0,0,9.88-3,17.85,17.85,0,0,0,3.46-2.92,18.12,18.12,0,0,0,2.36-3.27,7.54,7.54,0,0,0-5.09-5.45l2.18-2,13.45-.18s3.27,17.63,22.91,16S939,405.36,939,405.36l-13.09-10L939,395l2.19-4.73-1.46-3.82-3.64-2.91-.54-6.18-.55-3.81-4.54-3.28-5.09-2.36h-7.64s28.91-48.54,42.73-54.36,24-28.72,24-28.72.37-10.73-7.81-14-7.46-9.27-7.46-9.27l14-7.46,9.09-.18s6.73,1.46,9.09,6.91,5.09,1.27,5.09,1.27l-1.82-8s17.27,2.73,20.73,4.37,5.82-1.64,5.82-1.64,7.63,2.91,6.9-.36-8.54-9.64-8.54-9.64l-5.27-2.54-4-3.64.91-2.36.72-6.91a12.23,12.23,0,0,0-2.07-2.27,14.73,14.73,0,0,0-3-1.91c-2.36-1.08-8.15-.86-14.72,2.18l-3.46-2.55-11.45.73s-18.18,6.91-25.63,12.36-10.18,6-10.18,6h-7.09l-3.28.18s-4-6.9-2.18-12.9-2.18-13.46-2.18-13.46l.18-6.72.91-7.63,9.82-2.19c9.68,4,15.45,3,18.94,1.36,0,0,1.35-.65,10.15-7.36a7.72,7.72,0,0,0,6.45-3.6c-2.85-6.84-2.13-10.61-.87-12.8,1-1.75,2.74-3.18,4.34-6.73a23.09,23.09,0,0,0,1.53-4.68C988.37,168.63,988.64,167.5,987.22,161.57Z"/><polygon class="cls-2" points="1055.96 171.2 1085.32 177.98 1085.32 185.13 1133.88 203.57 1132 232.93 1097.37 237.83 1096.99 245.73 1143.29 264.18 1143.29 300.69 1139.15 314.24 1127.86 314.24 1127.48 404.96 1021.71 402.32 1023.97 315.75 1002.14 313.49 1002.14 302.95 988.59 300.69 988.59 281.12 1047.68 281.12 1055.96 279.03 1060.48 259.66 1065.94 241.22 1043.16 240.84 1055.96 171.2"/><path class="cls-2" d="M175.34,196.37s-6-1-20.12,2.51-26.4,21.38-26.4,21.38-39,14.14-63.5,39.92S23.52,290.67,33,313.61s17,21.69,16.34,27.66S10,381.82,10,381.82s10.06,6.92,12.26,12.26,4.4,9.43,4.4,11.63,23.26,11.63,31.75,6.92S49,401,49,401l-7.23-8.8-2.52-5.66s8.8-11,21.06-16.35c14.76-6.43,21.27-16.75,19.81-22.31-.47-1.79-1.74-2.58-3.15-6.61a29.56,29.56,0,0,1-1.59-8.14,41.8,41.8,0,0,0,9.6,8.18c6.87,4.24,11.45,3.64,13.68,7.19,1.48,2.35,2,6.56-2.25,14.8q-1,5.74-1.93,11.49c.57,5.92,1,12.21,1.09,18.84.07,3.24.06,6.4,0,9.46l-2.41,7.55c15.61,2.74,25.63,4.54,32.42,5.77,11.17,2,18.63,3.42,24.63-1a17.86,17.86,0,0,0,6-8.18l-13.84-3.45-9.74-5.35-10.37-6.28-2.52-.95L126,371.14s10.37-14.15,3.77-22.64-3.14-12.88-11.94-19.49-17.29-14.45-17.29-14.45q2.4-3.31,5.2-6.77c2.69-3.31,5.37-6.34,8-9.1,1-.94,7.21-6.64,14.18-5.07,4.26,1,6.89,4.2,9.77,7.74a48,48,0,0,1,6.89,11.94c13.48,22.59,54.61,41.13,52.8,62.87-.48,5.75-4.05,15.58-5,15.4-.24-.05-.32-.69-.35-1.26l1.93,6.6,4.58-1,3.59-2.76-1.57,6.29-4.72,4.71-.94,5.34s11,6.29,29.23-1.25-9.74-33.32-9.74-33.32l-5.66-11.63L198.92,334l20.74,9.43c10.12,13.57,14.15,17.92,14.15,17.92a109,109,0,0,0,8.8,8.49s12.57-.94,10.06-10.37c-7-26.18-20.44-34.58-20.44-34.58A39.52,39.52,0,0,0,219,320.09l-10.61-3-7.23-7.23-4.72-4.09-9.12-8.48-8.8-6.6c7.24-28.78,5.81-38.22,2.52-40.87-.64-.51-3.84-2.77-3.8-5.77,0-1.72,1.12-3.61,2.23-3.66s2.53,2,3.15,5.19a16,16,0,0,0,8.16,3.3c7,.69,12.89-3.32,12.89-4.72,0-3.14,5-9.43,5-9.43s6.91-.31.63-7.23a135.32,135.32,0,0,0-11.95-11.63,9.67,9.67,0,0,0-.16-7.18,10.3,10.3,0,0,0-4.55-4.45A115.51,115.51,0,0,0,175.34,196.37Z"/><path class="cls-2" d="M458.5,70.71c-25.14-20.27-51.21-16.25-71.33,7.83-58.83,22.79-66.54,48.32-92.54,101.42-3.68,4.34-11.19,13.23-15,26.85-11.74,32.24,19.77,67.71,27.51,100.48,0,0-19.07,14-19.07,18.23-4.92,36,7.79,36.67-15.34,71.15,0,0,0,9.76,25.57,8.83s28.83,2.79,28.83,2.79L349,404.57l-1.39-7.9-14.42-5.12c-4.07-2.36-11.8-8.47-15.35-11.63l-2.32-4.18L311.36,372,309,366.9l35.34-64.64s6.05-7,10.23-2.32-9.76,30.69-8.37,36.74,2.33,15.81,7.91,24.64,1.86,47,1.86,47,55.34,11.16,79.52,0-33.95-17.2-33.95-17.2l-11.16-10.7-5.12-17.67L383,340.4l3.72-24.65c14.62-7.06,17.54-29.13,6.72-39.82-2.22-18.46-2.49-38.27-3-56.91-1.72-12.27-6.23-29.37-8.84-41.39L390,165.54c10.29-11.15,14.78-18.82,15-34.21,15.43-36.59,58.6,17.93,57.52-28.57l-3.72-13Z"/><path class="cls-2" d="M603.23,46.16s-24.49-17-48.38-2.43S536.63,79,536.63,79,519.83,89.68,515,98s-47.77,44.13-47.77,49,9.11,43.92,14.37,48.17-2.22,26.92,7.7,43.12,13.15,52.22,23.48,57.89S484.21,315,480,328.74s-1.21,18.22-9.71,26.11a162.85,162.85,0,0,0-13.36,13.77s-16.4,5.87-7.69,16.39,22.67,10.32,30.16,20.24S501,409.5,501,409.5l-3-5.87-7.69-8.9-5.06-5.67L481,384v-9.31l12.55-16.4,52.42-45.14s6.89-20.24,4.25-23.07,17.21,11.13,17.21,11.13-14.17,33-8.91,45.54,7.29,38.46,1.42,52.43S565,414.56,565,414.56l63.16.81,7.08-6.47-8.7-3.24-7.9-2L609.3,399l-5.87-3.44-6.07-4.86L593.11,386l-3.24-3.84-.81-7.29s10.93-67,13-77.32S594.52,280,594.52,280s-11.33-27.73-15.78-31-8.91-11.74-8.91-11.74l-7.09-15.19-6.07-5.87-3-7.28v-6.68s51.61,9.31,53.43,14.17-13.15,39.06-13.15,39.06l31.17-28.86a30.36,30.36,0,0,0,7.29-2.31c3.23-1.62,6.07-18.62,1.62-23.68s-12.55-9.31-12.55-9.31l-12.15-.41L600,189.27l-6.68-1.62-11.13-3.84-9.11-3.65-4.46-3.64-4.25-8.3-2.63-7.29s10.73-20,10.93-23.07-2.22-15.18-2.22-15.18L565,117V107.5l13.56-7.29,20.65-1.62c1.31-.58,9.4-4.28,11.33-12.35,1.56-6.5-1.65-12.57-2.52-14.21-2.76-5.22-5.28-5.11-5.66-8.67-.49-4.63,3.53-7,2.82-12.32A11.51,11.51,0,0,0,603.23,46.16Z"/><path class="cls-2" d="M798.27,6.39S776-7.08,756.07,5.09s-17.86,41.42-17.86,41.42-28.48,19.94-31.84,25.38L673,125.73a92.39,92.39,0,0,0,5.26,17.52c3.84,9.35,6.51,11.45,8.72,16.4,7.76,17.36-12.36,28-4.14,49.45C690.06,228,694.72,236,694.72,236l3.88,48.67S676.08,307,673,311.1s-6.73,19.42-6.73,25.11-20.19,35.73-20.19,35.73l-9.76,10.35s.7,9.58,7.43,10.1,20.45,4.14,24.07,7,38.58,6.73,38.58,6.73L703,401.19l-9.84-7-12.94-6.73-7.51-8-4.66-6,32.62-45.56,32.1-35.73.52-21.49,13.46,11.91s1.82,9.32.78,17.09-7,24.33-7,24.33.26,26.41,4.14,30.81S747,387.21,747,387.21s-6.21,13.72-3.88,18.9,32.62,4.66,32.62,4.66l38.32-2.59-1.56-5.43-9.32-4.4-17.08-5.44-6.48-4.14-7.5-4.66.51-27.7s12.17-62.91,12.43-69.13-2.07-19.93-9.84-27.18-13.72-25.37-13.72-25.37l-3.36-11.91-2.33-11.65-3.37-9.32L747,193.3l-4.14-7.24-5.69-7.77.77-4.66S780.67,188.9,784,193.05s16.06,12.34,16.06,12.34,20.19-3.8,14-15.71-15.8-8.8-15.8-8.8l-13.2-5.18L768,164.57l-11.91-8.29L754,148.79l-2.33-8.56-.77-10.87,9.32-8.29a17.17,17.17,0,0,0,5.35-8.83c1.53-6.83-2.1-12.72-3.24-14.58-1.5-2.44-3.82-3.46-5.56-7.19a19.35,19.35,0,0,1-1.36-4.07l1.44-5.19L761,74.47l15-9.06L791,67a5.15,5.15,0,0,0,5-4.73l2-7.44,8-8.28a16.89,16.89,0,0,1-3.84-12.38,16.3,16.3,0,0,1,3.84-8.7,14,14,0,0,0,1.05-6C806.71,11.49,799.15,6.9,798.27,6.39Z"/><path class="cls-2" d="M987.22,161.57c-.69-.85-13-15.36-31.63-12.78-14.94,2.07-22.8,13.56-24,15.38a43.94,43.94,0,0,1-6.91,10.49c-21.49,24.14-58.54,4.41-75.08,27.63-18,25.27-16.36,38.72-16.36,38.72l-.06,15.14A36.92,36.92,0,0,0,830,240.29c-1.88-4.13-3.68-7.29-6.91-8.73-4.91-2.18-11.82,2.91-11.82,2.91l-3.82,21.82-2.18,17.81-1.09,21.09s2.18,20.91,16.18,21.27S856,317.73,856,317.73l-.18,22v26.36l.18,3.46H821.24l-2.74,3.51-1.26,5-18,2-3.45,4.54s1.27,5.28,4.18,5.46-2.5,6.43-2.5,6.43l15,6.23,7.64-3.39s33.63-8.54,34.36-6,4,11.45,4,11.45a15.66,15.66,0,0,0,10.66,5.2,15.5,15.5,0,0,0,9.88-3,17.85,17.85,0,0,0,3.46-2.92,18.12,18.12,0,0,0,2.36-3.27,7.54,7.54,0,0,0-5.09-5.45l2.18-2,13.45-.18s3.27,17.63,22.91,16S939,405.36,939,405.36l-13.09-10L939,395l2.19-4.73-1.46-3.82-3.64-2.91-.54-6.18-.55-3.81-4.54-3.28-5.09-2.36h-7.64s28.91-48.54,42.73-54.36,24-28.72,24-28.72.37-10.73-7.81-14-7.46-9.27-7.46-9.27l14-7.46,9.09-.18s6.73,1.46,9.09,6.91,5.09,1.27,5.09,1.27l-1.82-8s17.27,2.73,20.73,4.37,5.82-1.64,5.82-1.64,7.63,2.91,6.9-.36-8.54-9.64-8.54-9.64l-5.27-2.54-4-3.64.91-2.36.72-6.91a12.23,12.23,0,0,0-2.07-2.27,14.73,14.73,0,0,0-3-1.91c-2.36-1.08-8.15-.86-14.72,2.18l-3.46-2.55-11.45.73s-18.18,6.91-25.63,12.36-10.18,6-10.18,6h-7.09l-3.28.18s-4-6.9-2.18-12.9-2.18-13.46-2.18-13.46l.18-6.72.91-7.63,9.82-2.19c9.68,4,15.45,3,18.94,1.36,0,0,1.35-.65,10.15-7.36a7.72,7.72,0,0,0,6.45-3.6c-2.85-6.84-2.13-10.61-.87-12.8,1-1.75,2.74-3.18,4.34-6.73a23.09,23.09,0,0,0,1.53-4.68C988.37,168.63,988.64,167.5,987.22,161.57Z"/><polygon class="cls-2" points="1055.96 171.2 1085.32 177.98 1085.32 185.13 1133.88 203.57 1132 232.93 1097.37 237.83 1096.99 245.73 1143.29 264.18 1143.29 300.69 1139.15 314.24 1127.86 314.24 1127.48 404.96 1021.71 402.32 1023.97 315.75 1002.14 313.49 1002.14 302.95 988.59 300.69 988.59 281.12 1047.68 281.12 1055.96 279.03 1060.48 259.66 1065.94 241.22 1043.16 240.84 1055.96 171.2"/></g></svg>