<svg id="Layer_2" data-name="Layer 2" xmlns="http://www.w3.org/2000/svg" viewBox="0 0 2080.74 2110.72"><defs><style>.cls-1{fill:#6dc497;}.cls-2{fill:#252525;}.cls-3{fill:none;}</style></defs><path class="cls-1" d="M882.06,1014.52a200.57,200.57,0,0,0-5.68-44.6l-.06-.26c-6.8-28.16-19.63-57.13-38.57-88.26-7.41-11.77-18.51-25.1-31.93-37.81-27.35-25.91-64.3-49.22-99.11-51.3h-.16c-22.12-1.29-43.37,6-60.72,26.72q.54,200.06,1.09,400.1c6.2,10.91,15.63,22.78,30,28.94,12.17,5.21,25.71,5.41,39.72,2,29.07-7,60.21-29.5,85.55-54.58A304.79,304.79,0,0,0,834.53,1158c13.18-21.2,23.64-41.41,31.37-61,8.5-21.63,13.66-42.58,15.46-63.4A189.12,189.12,0,0,0,882.06,1014.52Zm0,0a200.57,200.57,0,0,0-5.68-44.6l-.06-.26c-6.8-28.16-19.63-57.13-38.57-88.26-7.41-11.77-18.51-25.1-31.93-37.81-27.35-25.91-64.3-49.22-99.11-51.3h-.16c-22.12-1.29-43.37,6-60.72,26.72q.54,200.06,1.09,400.1c6.2,10.91,15.63,22.78,30,28.94,12.17,5.21,25.71,5.41,39.72,2,29.07-7,60.21-29.5,85.55-54.58A304.79,304.79,0,0,0,834.53,1158c13.18-21.2,23.64-41.41,31.37-61,8.5-21.63,13.66-42.58,15.46-63.4A189.12,189.12,0,0,0,882.06,1014.52Zm0,0a200.57,200.57,0,0,0-5.68-44.6l-.06-.26c-6.8-28.16-19.63-57.13-38.57-88.26-7.41-11.77-18.51-25.1-31.93-37.81-27.35-25.91-64.3-49.22-99.11-51.3h-.16c-22.12-1.29-43.37,6-60.72,26.72q.54,200.06,1.09,400.1c6.2,10.91,15.63,22.78,30,28.94,12.17,5.21,25.71,5.41,39.72,2,29.07-7,60.21-29.5,85.55-54.58A304.79,304.79,0,0,0,834.53,1158c13.18-21.2,23.64-41.41,31.37-61,8.5-21.63,13.66-42.58,15.46-63.4A189.12,189.12,0,0,0,882.06,1014.52Zm0,0a200.57,200.57,0,0,0-5.68-44.6l-.06-.26c-6.8-28.16-19.63-57.13-38.57-88.26-7.41-11.77-18.51-25.1-31.93-37.81-27.35-25.91-64.3-49.22-99.11-51.3h-.16c-22.12-1.29-43.37,6-60.72,26.72q.54,200.06,1.09,400.1c6.2,10.91,15.63,22.78,30,28.94,12.17,5.21,25.71,5.41,39.72,2,29.07-7,60.21-29.5,85.55-54.58A304.79,304.79,0,0,0,834.53,1158c13.18-21.2,23.64-41.41,31.37-61,8.5-21.63,13.66-42.58,15.46-63.4A189.12,189.12,0,0,0,882.06,1014.52Zm0,0a200.57,200.57,0,0,0-5.68-44.6l-.06-.26c-6.8-28.16-19.63-57.13-38.57-88.26-7.41-11.77-18.51-25.1-31.93-37.81-27.35-25.91-64.3-49.22-99.11-51.3h-.16c-22.12-1.29-43.37,6-60.72,26.72q.54,200.06,1.09,400.1c6.2,10.91,15.63,22.78,30,28.94,12.17,5.21,25.71,5.41,39.72,2,29.07-7,60.21-29.5,85.55-54.58A304.79,304.79,0,0,0,834.53,1158c13.18-21.2,23.64-41.41,31.37-61,8.5-21.63,13.66-42.58,15.46-63.4A189.12,189.12,0,0,0,882.06,1014.52Zm0,0a200.57,200.57,0,0,0-5.68-44.6l-.06-.26c-6.8-28.16-19.63-57.13-38.57-88.26-7.41-11.77-18.51-25.1-31.93-37.81-27.35-25.91-64.3-49.22-99.11-51.3h-.16c-22.12-1.29-43.37,6-60.72,26.72q.54,200.06,1.09,400.1c6.2,10.91,15.63,22.78,30,28.94,12.17,5.21,25.71,5.41,39.72,2,29.07-7,60.21-29.5,85.55-54.58A304.79,304.79,0,0,0,834.53,1158c13.18-21.2,23.64-41.41,31.37-61,8.5-21.63,13.66-42.58,15.46-63.4A189.12,189.12,0,0,0,882.06,1014.52Zm0,0a200.57,200.57,0,0,0-5.68-44.6l-.06-.26c-6.8-28.16-19.63-57.13-38.57-88.26-7.41-11.77-18.51-25.1-31.93-37.81-27.35-25.91-64.3-49.22-99.11-51.3h-.16c-22.12-1.29-43.37,6-60.72,26.72q.54,200.06,1.09,400.1c6.2,10.91,15.63,22.78,30,28.94,12.17,5.21,25.71,5.41,39.72,2,29.07-7,60.21-29.5,85.55-54.58A304.79,304.79,0,0,0,834.53,1158c13.18-21.2,23.64-41.41,31.37-61,8.5-21.63,13.66-42.58,15.46-63.4A189.12,189.12,0,0,0,882.06,1014.52Zm0,0a200.57,200.57,0,0,0-5.68-44.6l-.06-.26c-6.8-28.16-19.63-57.13-38.57-88.26-7.41-11.77-18.51-25.1-31.93-37.81-27.35-25.91-64.3-49.22-99.11-51.3h-.16c-22.12-1.29-43.37,6-60.72,26.72q.54,200.06,1.09,400.1c6.2,10.91,15.63,22.78,30,28.94,12.17,5.21,25.71,5.41,39.72,2,29.07-7,60.21-29.5,85.55-54.58A304.79,304.79,0,0,0,834.53,1158c13.18-21.2,23.64-41.41,31.37-61,8.5-21.63,13.66-42.58,15.46-63.4A189.12,189.12,0,0,0,882.06,1014.52Zm-5.68-44.6-.06-.26c-6.8-28.16-19.63-57.13-38.57-88.26-7.41-11.77-18.51-25.1-31.93-37.81-28.21-29.84-62.34-50.88-99.11-51.3h-.16c-22.12-1.29-43.37,6-60.72,26.72q.54,200.06,1.09,400.1c6.2,10.91,15.63,22.78,30,28.94,12.17,5.21,25.71,5.41,39.72,2,30.11-5.79,59.83-26.92,85.55-54.58A304.79,304.79,0,0,0,834.53,1158c13.18-21.2,23.64-41.41,31.37-61,10.1-24,15.78-46.34,15.46-63.4a189.12,189.12,0,0,0,.7-19C882.84,1001.92,880.82,986.59,876.38,969.92Zm0,0-.06-.26c-6.8-28.16-19.63-57.13-38.57-88.26-7.41-11.77-18.51-25.1-31.93-37.81-28.21-29.84-62.34-50.88-99.11-51.3h-.16c-22.12-1.29-43.37,6-60.72,26.72q.54,200.06,1.09,400.1c6.2,10.91,15.63,22.78,30,28.94,12.17,5.21,25.71,5.41,39.72,2,30.11-5.79,59.83-26.92,85.55-54.58A304.79,304.79,0,0,0,834.53,1158c13.18-21.2,23.64-41.41,31.37-61,10.1-24,15.78-46.34,15.46-63.4a189.12,189.12,0,0,0,.7-19C882.84,1001.92,880.82,986.59,876.38,969.92Zm0,0-.06-.26c-10.94-41-36.39-90-70.5-126.07-28.21-29.84-62.34-50.88-99.11-51.3h-.16a98.55,98.55,0,0,0-22.09,2.29C667.1,799.47,654.38,810,645.83,819q.54,200.06,1.09,400.1c6.2,10.91,15.63,22.78,30,28.94a79.84,79.84,0,0,0,39.72,2c30.11-5.79,59.83-26.92,85.55-54.58,27-29,49.63-65.27,63.69-98.52,10.1-24,15.78-46.34,15.46-63.4a60.7,60.7,0,0,0-.74-8.49,64.31,64.31,0,0,0,1.44-10.54C882.84,1001.92,880.82,986.59,876.38,969.92Zm5.68,44.6a200.57,200.57,0,0,0-5.68-44.6l-.06-.26c-6.8-28.16-19.63-57.13-38.57-88.26-7.41-11.77-18.51-25.1-31.93-37.81-27.35-25.91-64.3-49.22-99.11-51.3h-.16c-22.12-1.29-43.37,6-60.72,26.72q.54,200.06,1.09,400.1c6.2,10.91,15.63,22.78,30,28.94,12.17,5.21,25.71,5.41,39.72,2,29.07-7,60.21-29.5,85.55-54.58A304.79,304.79,0,0,0,834.53,1158c13.18-21.2,23.64-41.41,31.37-61,8.5-21.63,13.66-42.58,15.46-63.4A189.12,189.12,0,0,0,882.06,1014.52Zm0,0a200.57,200.57,0,0,0-5.68-44.6l-.06-.26c-6.8-28.16-19.63-57.13-38.57-88.26-7.41-11.77-18.51-25.1-31.93-37.81-27.35-25.91-64.3-49.22-99.11-51.3h-.16c-22.12-1.29-43.37,6-60.72,26.72q.54,200.06,1.09,400.1c6.2,10.91,15.63,22.78,30,28.94,12.17,5.21,25.71,5.41,39.72,2,29.07-7,60.21-29.5,85.55-54.58A304.79,304.79,0,0,0,834.53,1158c13.18-21.2,23.64-41.41,31.37-61,8.5-21.63,13.66-42.58,15.46-63.4A189.12,189.12,0,0,0,882.06,1014.52Zm0,0a200.57,200.57,0,0,0-5.68-44.6l-.06-.26c-6.8-28.16-19.63-57.13-38.57-88.26-7.41-11.77-18.51-25.1-31.93-37.81-27.35-25.91-64.3-49.22-99.11-51.3h-.16c-22.12-1.29-43.37,6-60.72,26.72q.54,200.06,1.09,400.1c6.2,10.91,15.63,22.78,30,28.94,12.17,5.21,25.71,5.41,39.72,2,29.07-7,60.21-29.5,85.55-54.58A304.79,304.79,0,0,0,834.53,1158c13.18-21.2,23.64-41.41,31.37-61,8.5-21.63,13.66-42.58,15.46-63.4A189.12,189.12,0,0,0,882.06,1014.52Zm0,0a200.57,200.57,0,0,0-5.68-44.6l-.06-.26c-6.8-28.16-19.63-57.13-38.57-88.26-7.41-11.77-18.51-25.1-31.93-37.81-27.35-25.91-64.3-49.22-99.11-51.3h-.16c-22.12-1.29-43.37,6-60.72,26.72q.54,200.06,1.09,400.1c6.2,10.91,15.63,22.78,30,28.94,12.17,5.21,25.71,5.41,39.72,2,29.07-7,60.21-29.5,85.55-54.58A304.79,304.79,0,0,0,834.53,1158c13.18-21.2,23.64-41.41,31.37-61,8.5-21.63,13.66-42.58,15.46-63.4A189.12,189.12,0,0,0,882.06,1014.52Zm0,0a200.57,200.57,0,0,0-5.68-44.6l-.06-.26c-6.8-28.16-19.63-57.13-38.57-88.26-7.41-11.77-18.51-25.1-31.93-37.81-27.35-25.91-64.3-49.22-99.11-51.3h-.16c-22.12-1.29-43.37,6-60.72,26.72q.54,200.06,1.09,400.1c6.2,10.91,15.63,22.78,30,28.94,12.17,5.21,25.71,5.41,39.72,2,29.07-7,60.21-29.5,85.55-54.58A304.79,304.79,0,0,0,834.53,1158c13.18-21.2,23.64-41.41,31.37-61,8.5-21.63,13.66-42.58,15.46-63.4A189.12,189.12,0,0,0,882.06,1014.52Zm0,0a200.57,200.57,0,0,0-5.68-44.6l-.06-.26c-6.8-28.16-19.63-57.13-38.57-88.26-7.41-11.77-18.51-25.1-31.93-37.81-27.35-25.91-64.3-49.22-99.11-51.3h-.16c-22.12-1.29-43.37,6-60.72,26.72q.54,200.06,1.09,400.1c6.2,10.91,15.63,22.78,30,28.94,12.17,5.21,25.71,5.41,39.72,2,29.07-7,60.21-29.5,85.55-54.58A304.79,304.79,0,0,0,834.53,1158c13.18-21.2,23.64-41.41,31.37-61,8.5-21.63,13.66-42.58,15.46-63.4A189.12,189.12,0,0,0,882.06,1014.52Z"/><path class="cls-1" d="M1040.36,0c-1387.26,23.69-1387,2087.23.05,2110.72C2427.63,2087,2427.42,23.49,1040.36,0Z"/><path class="cls-2" d="M447.65,894.35,153,1027.15l289.75,222.67q-.27,35.84-.52,71.67-174.44-137-348.9-274L93,1004.21,452,830.64Q449.81,862.49,447.65,894.35Z"/><path class="cls-2" d="M892.24,875.24c-62.93-71.3-244.32-70.81-343.5-52.5V1320c102.58,15.17,280.44,7.24,342-66.76C983.29,1172.4,990.26,953,892.24,875.24Zm-11.61,195.82c11,67.46-103.2,254.82-203.69,223-14.39-6.16-23.82-18-30-28.94Q646.38,1065,645.83,865c58.09-69.23,159.76,11.34,191.92,62.4C880.81,987.62,881.27,1051.23,880.63,1071.06Z"/><path class="cls-2" d="M1140.15,817.46q-13.32,252-26.67,504h-65.25q-10.9-252.36-21.83-504.7Z"/><path class="cls-2" d="M1591.23,816q-83.1,252.62-166.2,505.25l-98.88-.65q-76.35-252.3-152.67-504.6l105.48-.84c31.56,146.1,57.12,294.72,97.77,438.84h1.5c41.19-145.15,77.38-292.22,119.83-436.9Z"/><path class="cls-2" d="M1987,1006.29v47.34l-348.48,267.86q.09-33.4.2-66.79l305.48-225.06L1636,885.63q-1-33.72-1.89-67.43Z"/><line class="cls-3" x1="333.04" y1="1346.39" x2="1867.66" y2="1340.81"/></svg>