<svg id="Layer_1" data-name="Layer 1" xmlns="http://www.w3.org/2000/svg" viewBox="0 0 2110.72 2110.72"><defs><style>.cls-1{fill:#6dc497;}.cls-2,.cls-4{fill:#252525;}.cls-2,.cls-3,.cls-5{stroke:#252525;stroke-miterlimit:10;stroke-width:30px;}.cls-3{fill:none;}.cls-5{fill:#6ec392;}</style></defs><g id="Layer_2" data-name="Layer 2"><path class="cls-1" d="M1055.36,0C472.5,0,0,472.5,0,1055.36S472.5,2110.72,1055.36,2110.72s1055.36-472.5,1055.36-1055.36S1638.22,0,1055.36,0ZM258.07,1686l56.23-98.68,48.27,75.22Zm1490.08-23.46,48.27-75.22,56.23,98.68Z"/></g><g id="Layer_3" data-name="Layer 3"><polygon class="cls-2" points="1852.65 1685.98 1748.15 1662.52 1796.42 1587.3 1852.65 1685.98"/><path class="cls-3" d="M1796.42,1587.3l-48.27,75.22-141.58-31.79-551.21-444.44L884.73,1048.7C634.58,847,445.59,694.61,434.84,685.93l-46.49-37.51-43.72-35.23c-23.34-18.81-59.77-48.18-86.48-69.73-.37-10.28-1.47-67.74,43.44-114.74,42.51-44.5,96-48,107.23-48.47l85.72,70.12a313.12,313.12,0,0,0,91,74.43l469.83,384.32L1226,1048.7l489.8,400.66,3.78,3.09Z"/><path class="cls-3" d="M344.63,613.19c146.3-158.42,149.91-162.82,149.91-162.82"/><path class="cls-3" d="M585.53,524.8C478,636.75,434.84,685.93,434.84,685.93"/><path class="cls-4" d="M513.24,516.39c-13,40.63-53.47,84-91,103.62a81.78,81.78,0,0,1-9.11,4.1l-1.1-1a109.52,109.52,0,0,1,7.41-18.18c16.92-32.6,43.45-61.75,74.57-81.3a107.23,107.23,0,0,1,17.51-8.84l1.76,1.62Z"/><line class="cls-3" x1="1748.15" y1="1662.52" x2="1745.37" y2="1666.85"/><line class="cls-3" x1="1798.73" y1="1583.7" x2="1796.42" y2="1587.3"/><polyline class="cls-3" points="1718.31 1450.26 1638.75 1421.81 1665.42 1480.02 1562.69 1446.76 1614.71 1541.74 1536.91 1525.54 1607.58 1628.49"/></g><g id="Layer_1-2" data-name="Layer 1-2"><path class="cls-5" d="M1675.88,685.93C1665.13,694.61,1476.14,847,1226,1048.7l-170.63,137.59L504.15,1630.73l-141.58,31.79L314.3,1587.3l76.85-134.85,1.74-1.42,2-1.67,489.8-400.66,170.63-139.58L1525.19,524.8C1632.71,636.75,1675.88,685.93,1675.88,685.93Z"/><polygon class="cls-2" points="362.57 1662.52 258.07 1685.98 314.3 1587.3 362.57 1662.52"/><path class="cls-5" d="M1852.57,543.46c-26.71,21.55-63.14,50.92-86.48,69.73l-43.72,35.23-46.49,37.51s-43.17-49.18-150.69-161.13a313.12,313.12,0,0,0,91-74.43l85.72-70.12c11.2.48,64.72,4,107.23,48.47C1854,475.72,1852.94,533.18,1852.57,543.46Z"/><path class="cls-5" d="M1766.09,613.19c-146.3-158.42-149.91-162.82-149.91-162.82"/><path class="cls-4" d="M1600,514.07c22.48,11.32,40.65,28.73,57.3,47.18a367,367,0,0,1,34.06,43.63,175.49,175.49,0,0,1,9.57,16.19l-5.48,5.06c-20.93-13.36-39.09-30.41-56.19-48.2-12.79-13.39-24.63-27.61-34-43.67a116.67,116.67,0,0,1-8.51-17.17l3.26-3Z"/><line class="cls-3" x1="365.35" y1="1666.85" x2="362.57" y2="1662.52"/><line class="cls-3" x1="314.3" y1="1587.3" x2="311.99" y2="1583.7"/><polyline class="cls-5" points="392.41 1450.26 471.97 1421.81 445.3 1480.02 548.02 1446.76 496.01 1541.74 573.81 1525.54 503.14 1628.49"/></g></svg>